# xmcd CD database file generated by LOLA_Freedb v0.9beta0
# 
# Track frame offsets:
#      150
#      20365
#      37099
#      54760
#      70773
#      86513
#      101292
#      122251
#      141462
#      157235
#      175321
#      190214
#      204481
#      243321
# 
# Disc length: 3930 seconds
# 
# Revision: 1 
# Processed by: cddbd v1.5.2PL0 Copyright (c) Steve Scherf et al.
# Submitted via: LOLA_Freedb v0.9beta0
# 
DISCID=b90f580e
DTITLE=Michael Wendler - Unbesiegt
DYEAR=1900
DGENRE=Pop
TTITLE0=Michael Wendler - Unbesiegt
TTITLE1=Michael Wendler - Dich lass ich nie mehr gehn
TTITLE2=Nina
TTITLE3=Echolot
TTITLE4=Dennoch liebst du mich
TTITLE5=Sie ist gegangen
TTITLE6=Rosen
TTITLE7=Voll am Limit
TTITLE8=Sie liebt den DJ
TTITLE9=Das schönste Girl der Welt
TTITLE10=Engel
TTITLE11=Dennoch liebst du mich
TTITLE12=Der Hit Mix 2008
TTITLE13=Daten-CD
EXTD=
EXTT0=
EXTT1=
EXTT2=
EXTT3=
EXTT4=
EXTT5=
EXTT6=
EXTT7=
EXTT8=
EXTT9=
EXTT10=
EXTT11=
EXTT12=
EXTT13=
PLAYORDER=
